<svg width="48" height="48" viewBox="0 0 48 48" fill="none" xmlns="http://www.w3.org/2000/svg">
<g clip-path="url(#clip0_71_2)">
<path d="M36.1882 13.5548L30.3977 8.63221C30.1468 8.41893 29.8002 8.35808 29.4917 8.4733C29.1832 8.58843 28.9612 8.86171 28.9116 9.18721L27.9283 15.6303H4.54113C4.12216 15.6303 3.75747 15.9169 3.65856 16.324L0.0256577 31.279C-0.0400611 31.5498 0.0220014 31.8357 0.19422 32.0548C0.366439 32.2739 0.629595 32.4018 0.90822 32.4018H7.52388C8.02544 32.4018 8.43213 31.9951 8.43213 31.4935C8.43213 30.992 8.02544 30.5853 7.52388 30.5853H2.06341L5.25503 17.4468H28.7083C29.157 17.4468 29.5384 17.1191 29.6061 16.6755L30.4614 11.0706L35.0116 14.9387C35.3938 15.2634 35.9671 15.2169 36.2918 14.835C36.6168 14.4529 36.5702 13.8797 36.1882 13.5548Z" fill="#F222FF"/>
<path d="M47.68 23.3239L38.9652 15.9155C38.583 15.5906 38.0098 15.6371 37.685 16.0192C37.36 16.4014 37.4065 16.9745 37.7887 17.2994L45.5908 23.932L26.5403 36.7653L27.3239 31.6304C27.3638 31.3686 27.2875 31.1026 27.115 30.9017C26.9424 30.7008 26.6908 30.5853 26.4262 30.5853H11.1567C10.6552 30.5853 10.2485 30.992 10.2485 31.4936C10.2485 31.9951 10.6552 32.4018 11.1567 32.4018H25.3687L24.4321 38.5389C24.3777 38.8952 24.5393 39.2502 24.8438 39.4431C24.9924 39.5372 25.1612 39.5842 25.3299 39.5842C25.5071 39.5842 25.6841 39.5324 25.8373 39.4292L47.5992 24.7695C47.8349 24.6108 47.9828 24.3508 47.9986 24.0671C48.0144 23.7832 47.8966 23.508 47.68 23.3239Z" fill="#F222FF"/>
</g>
<defs>
<clipPath id="clip0_71_2">
<rect width="48" height="48" fill="white"/>
</clipPath>
</defs>
</svg>
