<svg width="200" height="200" viewBox="0 0 200 200" fill="none" xmlns="http://www.w3.org/2000/svg">
<g clip-path="url(#clip0_106_229)">
<path d="M193.722 178.944L166.667 152.056V48.6112L153.889 25.1112C152.946 23.3195 151.532 21.8194 149.799 20.7729C148.066 19.7264 146.08 19.1733 144.056 19.1733C142.031 19.1733 140.045 19.7264 138.312 20.7729C136.579 21.8194 135.165 23.3195 134.222 25.1112L122.222 48.6667V107.833L20.6112 6.72228C19.8341 5.93878 18.8413 5.40445 17.7594 5.18739C16.6775 4.97034 15.5554 5.0804 14.5363 5.50355C13.5171 5.9267 12.6471 6.64376 12.0371 7.56332C11.4271 8.48287 11.1048 9.56325 11.1112 10.6667V55.5556H23.1667V64.4445H11.1112V100H23.1667V108.889H11.1112V145.833H23.1667V154.722H11.1112V182.889C11.1112 184.362 11.6965 185.775 12.7384 186.817C13.7802 187.859 15.1933 188.444 16.6667 188.444H189.778C190.881 188.451 191.962 188.129 192.881 187.519C193.801 186.909 194.518 186.039 194.941 185.019C195.364 184 195.474 182.878 195.257 181.796C195.04 180.714 194.506 179.722 193.722 178.944ZM55.5556 144.444V94.1112L105.945 144.444H55.5556ZM155.556 156.167H133.333V142.667H155.556V156.167ZM155.556 133.945H133.333V51.3889L144.111 30.4445L155.556 51.4445V133.945Z" fill="url(#paint0_linear_106_229)"/>
</g>
<defs>
<linearGradient id="paint0_linear_106_229" x1="11" y1="5" x2="195" y2="195" gradientUnits="userSpaceOnUse">
<stop stop-color="#FFD319"/>
<stop offset="0.5" stop-color="#F222FF"/>
<stop offset="1" stop-color="#45125E"/>
</linearGradient>
<clipPath id="clip0_106_229">
<rect width="200" height="200" fill="white"/>
</clipPath>
</defs>
</svg>
