<svg width="300" height="300" viewBox="0 0 300 300" fill="none" xmlns="http://www.w3.org/2000/svg">
<circle cx="150" cy="150" r="150" fill="#300E52"/>
<g clip-path="url(#clip0_106_559)">
<path d="M222.18 216.155L200.448 194.557V111.467L190.184 92.5907C189.427 91.1515 188.291 89.9466 186.899 89.106C185.507 88.2654 183.912 87.8212 182.286 87.8212C180.66 87.8212 179.065 88.2654 177.672 89.106C176.28 89.9466 175.145 91.1515 174.387 92.5907L164.749 111.511V159.036L83.1308 77.8201C82.5067 77.1907 81.7092 76.7615 80.8402 76.5872C79.9711 76.4128 79.0698 76.5012 78.2512 76.8411C77.4326 77.181 76.7338 77.757 76.2438 78.4956C75.7538 79.2342 75.4949 80.102 75.5001 80.9884V117.045H85.1835V124.185H75.5001V152.744H85.1835V159.884H75.5001V189.559H85.1835V196.699H75.5001V219.324C75.5001 220.507 75.9702 221.642 76.8071 222.479C77.644 223.316 78.779 223.786 79.9625 223.786H219.012C219.898 223.791 220.766 223.532 221.504 223.042C222.243 222.552 222.819 221.853 223.159 221.035C223.499 220.216 223.587 219.315 223.413 218.446C223.238 217.577 222.809 216.779 222.18 216.155ZM111.199 188.444V148.014L151.674 188.444H111.199ZM191.523 197.859H173.673V187.016H191.523V197.859ZM191.523 180.01H173.673V113.698L182.331 96.8746L191.523 113.743V180.01Z" fill="url(#paint0_linear_106_559)"/>
</g>
<defs>
<linearGradient id="paint0_linear_106_559" x1="75.4108" y1="76.4367" x2="235.656" y2="240.297" gradientUnits="userSpaceOnUse">
<stop stop-color="#FFD319"/>
<stop offset="0.5" stop-color="#F222FF"/>
<stop offset="1" stop-color="#45125E"/>
</linearGradient>
<clipPath id="clip0_106_559">
<rect width="185" height="185" fill="white" transform="translate(57 58)"/>
</clipPath>
</defs>
</svg>
