<svg width="64" height="64" viewBox="0 0 64 64" fill="none" xmlns="http://www.w3.org/2000/svg">
<path d="M32 0.791993C14.322 0.791993 0 15.126 0 32.792C0 46.938 9.168 58.928 21.874 63.158C23.48 63.46 24.06 62.47 24.06 61.614C24.06 60.854 24.042 58.844 24.03 56.176C15.124 58.104 13.248 51.874 13.248 51.874C11.79 48.186 9.686 47.196 9.686 47.196C6.79 45.218 9.916 45.26 9.916 45.26C13.124 45.478 14.812 48.55 14.812 48.55C17.666 53.446 22.3 52.03 24.134 51.206C24.414 49.144 25.248 47.726 26.156 46.936C19.052 46.134 11.582 43.384 11.582 31.122C11.582 27.62 12.822 24.768 14.872 22.528C14.518 21.726 13.434 18.466 15.154 14.058C15.154 14.058 17.832 13.204 23.954 17.34C26.516 16.63 29.236 16.276 31.954 16.258C34.674 16.276 37.392 16.632 39.954 17.34C46.04 13.204 48.716 14.058 48.716 14.058C50.434 18.466 49.35 21.724 49.038 22.528C51.068 24.768 52.308 27.622 52.308 31.122C52.308 43.412 44.828 46.122 37.716 46.904C38.828 47.862 39.87 49.832 39.87 52.822C39.87 57.102 39.83 60.55 39.83 61.592C39.83 62.424 40.39 63.424 42.038 63.102C54.838 58.916 63.996 46.916 63.996 32.79C63.996 15.124 49.674 0.789993 31.996 0.789993L32 0.791993Z" fill="#FF3864"/>
</svg>
