<svg width="24" height="24" viewBox="0 0 24 24" fill="none" xmlns="http://www.w3.org/2000/svg">
<g clip-path="url(#clip0_78_4)">
<path d="M14.051 2.751L18.986 5.601C19.802 4.742 21.159 4.708 22.018 5.524C22.166 5.664 22.292 5.825 22.395 6.001C22.984 7.029 22.627 8.34 21.599 8.929C21.425 9.029 21.238 9.104 21.041 9.152V14.851C22.187 15.124 22.895 16.274 22.621 17.42C22.573 17.624 22.494 17.82 22.389 18.001C21.797 19.024 20.488 19.375 19.462 18.783C19.266 18.67 19.087 18.524 18.936 18.354L14.031 21.186C14.403 22.31 13.793 23.521 12.67 23.892C12.453 23.963 12.228 24 12 24C10.819 24.001 9.86097 23.045 9.85997 21.864C9.85997 21.659 9.88897 21.454 9.94797 21.255L5.01197 18.408C4.19597 19.262 2.84097 19.295 1.98597 18.478C1.13197 17.662 1.09997 16.307 1.91597 15.452C2.19897 15.155 2.56197 14.946 2.95997 14.849L2.96097 9.15C1.81097 8.874 1.10297 7.717 1.37997 6.566C1.42697 6.368 1.50297 6.177 1.60397 6C2.19597 4.976 3.50597 4.626 4.53097 5.218C4.70797 5.319 4.86997 5.446 5.01097 5.595L9.94897 2.745C9.61297 1.612 10.26 0.423001 11.39 0.0880008C11.587 0.0290008 11.794 7.84623e-07 12 7.84623e-07C13.181 -0.000999215 14.139 0.954001 14.14 2.134C14.141 2.343 14.11 2.552 14.051 2.751ZM13.536 3.628C13.517 3.649 13.499 3.667 13.478 3.686L19.939 14.876C19.965 14.867 19.995 14.86 20.021 14.853V9.146C18.876 8.863 18.179 7.704 18.463 6.558C18.469 6.534 18.475 6.509 18.482 6.486L13.536 3.628V3.628ZM10.521 3.687L10.461 3.627L5.51497 6.479C5.84197 7.614 5.18797 8.797 4.05397 9.124C4.02797 9.132 4.00297 9.138 3.97797 9.145V14.853L4.06197 14.876L10.523 3.686L10.521 3.687V3.687ZM12.597 4.194C12.207 4.306 11.794 4.306 11.405 4.194L4.94497 15.383C5.23897 15.666 5.44697 16.028 5.54497 16.424H18.456C18.553 16.026 18.763 15.663 19.059 15.38L12.597 4.194ZM13.583 20.421L18.496 17.583C18.481 17.536 18.469 17.489 18.458 17.441H5.54197L5.52097 17.524L10.46 20.376C10.848 19.972 11.394 19.723 12 19.723C12.627 19.723 13.19 19.992 13.583 20.421Z" fill="white"/>
</g>
<defs>
<clipPath id="clip0_78_4">
<rect width="24" height="24" fill="white"/>
</clipPath>
</defs>
</svg>
