<svg width="512" height="464" viewBox="0 0 512 464" fill="none" xmlns="http://www.w3.org/2000/svg">
<g clip-path="url(#clip0_28_5)">
<path d="M352 333.416H160V441.752H352V333.416Z" fill="#BDBDBD"/>
<path d="M377.456 463.848H134.544C125.12 463.848 117.424 456.136 117.424 446.728C117.424 437.304 125.136 429.608 134.544 429.608H377.44C386.864 429.608 394.56 437.32 394.56 446.728C394.576 456.136 386.864 463.848 377.456 463.848Z" fill="url(#paint0_linear_28_5)"/>
<path d="M480 352.152H32C14.4 352.152 0 337.752 0 320.152V32.152C0 14.552 14.4 0.152008 32 0.152008H480C497.6 0.152008 512 14.552 512 32.152V320.152C512 337.752 497.6 352.152 480 352.152Z" fill="url(#paint1_linear_28_5)"/>
<path d="M490.128 22.088H21.968V330.216H490.128V22.088Z" fill="#333333"/>
<path d="M372.416 62.664H282.864V75.448H372.416V62.664Z" fill="white"/>
<path d="M372.4 98.488H300.768V111.272H372.4V98.488Z" fill="url(#paint2_linear_28_5)"/>
<path d="M247.04 62.664H211.216V75.448H247.04V62.664Z" fill="#C8C8C8"/>
<path d="M264.944 98.488H229.12V111.272H264.944V98.488Z" fill="url(#paint3_linear_28_5)"/>
<path d="M417.2 209.352H381.376V222.136H417.2V209.352Z" fill="white"/>
<path d="M327.648 209.352H291.824V222.136H327.648V209.352Z" fill="url(#paint4_linear_28_5)"/>
<path d="M264.944 241.832H211.216V254.616H264.944V241.832Z" fill="white"/>
<path d="M462.032 62.664H426.208V75.448H462.032V62.664Z" fill="#C8C8C8"/>
<path d="M157.488 170.12H85.84V182.904H157.488V170.12Z" fill="url(#paint5_linear_28_5)"/>
<path d="M264.96 170.12H193.312V182.904H264.96V170.12Z" fill="white"/>
<path d="M354.512 170.12H282.864V182.904H354.512V170.12Z" fill="url(#paint6_linear_28_5)"/>
<path d="M157.488 241.832H85.84V254.616H157.488V241.832Z" fill="url(#paint7_linear_28_5)"/>
<path d="M390.416 241.832H336.688V254.616H390.416V241.832Z" fill="white"/>
<path d="M461.968 170.12H390.32V182.904H461.968V170.12Z" fill="white"/>
<path d="M173.488 209.352H106.144V222.136H173.488V209.352Z" fill="#C8C8C8"/>
<path d="M264.96 277.592H85.84V290.376H264.96V277.592Z" fill="white"/>
<path d="M390.32 277.592H318.688V290.376H390.32V277.592Z" fill="url(#paint8_linear_28_5)"/>
<path d="M193.312 134.312H85.84V147.096H193.312V134.312Z" fill="url(#paint9_linear_28_5)"/>
<path d="M175.408 62.664H67.936V75.448H175.408V62.664Z" fill="url(#paint10_linear_28_5)"/>
<path d="M157.488 98.488H50.016V111.272H157.488V98.488Z" fill="#C8C8C8"/>
</g>
<defs>
<linearGradient id="paint0_linear_28_5" x1="416" y1="430" x2="104.5" y2="464" gradientUnits="userSpaceOnUse">
<stop stop-color="#FF3864"/>
<stop offset="1" stop-color="#45125E"/>
</linearGradient>
<linearGradient id="paint1_linear_28_5" x1="498.5" y1="11" x2="-12.5" y2="366" gradientUnits="userSpaceOnUse">
<stop offset="0.0386635" stop-color="#FF3864"/>
<stop offset="1" stop-color="#45125E"/>
</linearGradient>
<linearGradient id="paint2_linear_28_5" x1="315.5" y1="98" x2="372" y2="116" gradientUnits="userSpaceOnUse">
<stop stop-color="#FFD319"/>
<stop offset="1" stop-color="#F222FF"/>
</linearGradient>
<linearGradient id="paint3_linear_28_5" x1="236.5" y1="98" x2="271" y2="111" gradientUnits="userSpaceOnUse">
<stop stop-color="#FFD319"/>
<stop offset="1" stop-color="#F222FF"/>
</linearGradient>
<linearGradient id="paint4_linear_28_5" x1="309.736" y1="209.352" x2="309.736" y2="222.136" gradientUnits="userSpaceOnUse">
<stop stop-color="#FFD319"/>
<stop offset="1" stop-color="#F222FF"/>
</linearGradient>
<linearGradient id="paint5_linear_28_5" x1="94" y1="170" x2="165" y2="189.5" gradientUnits="userSpaceOnUse">
<stop stop-color="#FFD319"/>
<stop offset="1" stop-color="#F222FF"/>
</linearGradient>
<linearGradient id="paint6_linear_28_5" x1="304.774" y1="160.646" x2="340.53" y2="211.322" gradientUnits="userSpaceOnUse">
<stop stop-color="#FFD319"/>
<stop offset="1" stop-color="#F222FF"/>
</linearGradient>
<linearGradient id="paint7_linear_28_5" x1="107.75" y1="232.358" x2="143.506" y2="283.034" gradientUnits="userSpaceOnUse">
<stop stop-color="#FFD319"/>
<stop offset="1" stop-color="#F222FF"/>
</linearGradient>
<linearGradient id="paint8_linear_28_5" x1="319.258" y1="277.246" x2="333.616" y2="315.395" gradientUnits="userSpaceOnUse">
<stop stop-color="#FFD319"/>
<stop offset="1" stop-color="#F222FF"/>
</linearGradient>
<linearGradient id="paint9_linear_28_5" x1="86.6947" y1="133.966" x2="96.9737" y2="174.94" gradientUnits="userSpaceOnUse">
<stop stop-color="#FFD319"/>
<stop offset="1" stop-color="#F222FF"/>
</linearGradient>
<linearGradient id="paint10_linear_28_5" x1="68.7907" y1="62.3179" x2="79.0697" y2="103.292" gradientUnits="userSpaceOnUse">
<stop stop-color="#FFD319"/>
<stop offset="1" stop-color="#F222FF"/>
</linearGradient>
<clipPath id="clip0_28_5">
<rect width="512" height="464" fill="white"/>
</clipPath>
</defs>
</svg>
