<svg width="28" height="28" viewBox="0 0 28 28" fill="none" xmlns="http://www.w3.org/2000/svg">
<path d="M1.71375 1.71375V25.7062H25.7062V1.71375H1.71375ZM14.7708 20.4253C14.7708 22.7603 13.3998 23.8263 11.4024 23.8263C9.59785 23.8263 8.55332 22.8948 8.01777 21.7646L9.85491 20.6558C10.2088 21.2822 10.5301 21.8126 11.3065 21.8126C12.0451 21.8126 12.5164 21.523 12.5164 20.3936V12.7297H14.7708V20.4253ZM20.104 23.8263C18.0098 23.8263 16.6551 22.8306 15.9961 21.523L17.8333 20.463C18.3157 21.2505 18.9472 21.834 20.056 21.834C20.9874 21.834 21.5881 21.3679 21.5881 20.7201C21.5881 19.9489 20.9772 19.6756 19.9438 19.2206L19.3817 18.9798C17.7536 18.2891 16.6774 17.416 16.6774 15.5788C16.6774 13.8865 17.9678 12.6012 19.9763 12.6012C21.4116 12.6012 22.4398 13.099 23.1793 14.4058L21.4227 15.5309C21.0371 14.8402 20.619 14.5669 19.9712 14.5669C19.3131 14.5669 18.8949 14.985 18.8949 15.5309C18.8949 16.2061 19.3131 16.4786 20.2822 16.9019L20.8443 17.1426C22.762 17.9618 23.8383 18.8033 23.8383 20.6875C23.8383 22.7123 22.2419 23.8254 20.1049 23.8254L20.104 23.8263Z" fill="white"/>
</svg>
