<svg width="277" height="500" viewBox="0 0 277 500" fill="none" xmlns="http://www.w3.org/2000/svg">
<g clip-path="url(#clip0_105_5)">
<path d="M0.665321 468.75L0.665321 31.25C0.665321 14.0625 11.965 0 25.7758 0L251.77 0C265.581 0 276.881 14.0625 276.881 31.25L276.881 468.75C276.881 485.938 265.581 500 251.77 500L25.7758 500C11.965 500 0.665321 485.938 0.665321 468.75Z" fill="url(#paint0_linear_105_5)"/>
<path d="M259.667 478.641L259.667 21.4531L17.8787 21.4531L17.8787 478.641L259.667 478.641Z" fill="#333333"/>
<path d="M196.929 82.2135L152.458 82.3957L152.477 90.9829L196.948 90.8007L196.929 82.2135Z" fill="white"/>
<path d="M196.975 106.277L161.403 106.423L161.422 115.01L196.994 114.864L196.975 106.277Z" fill="url(#paint1_linear_105_5)"/>
<path d="M134.668 82.4686L116.878 82.5415L116.897 91.1287L134.687 91.0558L134.668 82.4686Z" fill="#C8C8C8"/>
<path d="M143.116 106.498L125.326 106.571L125.345 115.158L143.135 115.085L143.116 106.498Z" fill="url(#paint2_linear_105_5)"/>
<path d="M219.389 180.655L201.599 180.728L201.618 189.315L219.408 189.242L219.389 180.655Z" fill="white"/>
<path d="M174.918 180.837L157.128 180.91L157.147 189.497L174.937 189.424L174.918 180.837Z" fill="url(#paint3_linear_105_5)"/>
<path d="M143.828 202.782L117.147 202.891L117.166 211.478L143.847 211.369L143.828 202.782Z" fill="white"/>
<path d="M241.432 82.0313L223.642 82.1041L223.661 90.6913L241.451 90.6184L241.432 82.0313Z" fill="#C8C8C8"/>
<path d="M90.3585 154.83L54.7786 154.976L54.7978 163.563L90.3777 163.418L90.3585 154.83Z" fill="url(#paint4_linear_105_5)"/>
<path d="M143.728 154.612L108.148 154.758L108.168 163.345L143.748 163.199L143.728 154.612Z" fill="white"/>
<path d="M188.203 154.43L152.619 154.609L152.635 163.163L188.219 162.983L188.203 154.43Z" fill="url(#paint5_linear_105_5)"/>
<path d="M90.4705 203L54.8867 203.18L54.902 211.733L90.4858 211.554L90.4705 203Z" fill="url(#paint6_linear_105_5)"/>
<path d="M241.565 154.211L205.981 154.391L205.997 162.944L241.581 162.764L241.565 154.211Z" fill="white"/>
<path d="M98.3632 181.151L64.9207 181.287L64.9399 189.875L98.3824 189.738L98.3632 181.151Z" fill="#C8C8C8"/>
<path d="M143.89 226.802L54.9402 227.167L54.9594 235.754L143.909 235.389L143.89 226.802Z" fill="white"/>
<path d="M206.147 226.547L170.571 226.727L170.586 235.28L206.162 235.101L206.147 226.547Z" fill="url(#paint7_linear_105_5)"/>
<path d="M108.099 130.705L54.7249 130.974L54.7402 139.511L108.114 139.242L108.099 130.705Z" fill="url(#paint8_linear_105_5)"/>
<path d="M99.0998 82.6143L45.7261 82.8831L45.7414 91.4201L99.1152 91.1513L99.0998 82.6143Z" fill="url(#paint9_linear_105_5)"/>
<path d="M90.251 106.715L36.8811 106.933L36.9004 115.52L90.2703 115.302L90.251 106.715Z" fill="#C8C8C8"/>
<path d="M191.436 263.854L146.965 264.036L146.984 272.624L191.455 272.441L191.436 263.854Z" fill="white"/>
<path d="M191.482 287.918L155.91 288.063L155.929 296.651L191.501 296.505L191.482 287.918Z" fill="url(#paint10_linear_105_5)"/>
<path d="M129.175 264.109L111.385 264.182L111.404 272.769L129.194 272.696L129.175 264.109Z" fill="#C8C8C8"/>
<path d="M137.623 288.138L119.833 288.211L119.852 296.798L137.642 296.725L137.623 288.138Z" fill="url(#paint11_linear_105_5)"/>
<path d="M213.896 362.295L196.106 362.368L196.125 370.955L213.915 370.883L213.896 362.295Z" fill="white"/>
<path d="M169.425 362.478L151.635 362.55L151.654 371.138L169.444 371.065L169.425 362.478Z" fill="url(#paint12_linear_105_5)"/>
<path d="M138.335 384.422L111.654 384.532L111.674 393.119L138.354 393.01L138.335 384.422Z" fill="white"/>
<path d="M235.939 263.672L218.149 263.745L218.168 272.332L235.958 272.259L235.939 263.672Z" fill="#C8C8C8"/>
<path d="M84.8655 336.471L49.2856 336.617L49.3049 345.204L84.8848 345.058L84.8655 336.471Z" fill="url(#paint13_linear_105_5)"/>
<path d="M138.235 336.252L102.656 336.398L102.675 344.985L138.255 344.84L138.235 336.252Z" fill="white"/>
<path d="M182.71 336.07L147.126 336.25L147.142 344.803L182.726 344.624L182.71 336.07Z" fill="url(#paint14_linear_105_5)"/>
<path d="M84.9776 384.641L49.3938 384.821L49.4091 393.374L84.9929 393.194L84.9776 384.641Z" fill="url(#paint15_linear_105_5)"/>
<path d="M200.648 384.167L173.963 384.302L173.979 392.864L200.664 392.729L200.648 384.167Z" fill="white"/>
<path d="M236.072 335.852L200.489 336.031L200.504 344.585L236.088 344.405L236.072 335.852Z" fill="white"/>
<path d="M92.8703 362.791L59.4277 362.928L59.447 371.515L92.8895 371.378L92.8703 362.791Z" fill="#C8C8C8"/>
<path d="M138.397 408.443L49.4473 408.807L49.4665 417.394L138.416 417.03L138.397 408.443Z" fill="white"/>
<path d="M200.654 408.188L165.078 408.367L165.093 416.921L200.669 416.741L200.654 408.188Z" fill="url(#paint16_linear_105_5)"/>
<path d="M102.606 312.345L49.2319 312.614L49.2473 321.151L102.621 320.882L102.606 312.345Z" fill="url(#paint17_linear_105_5)"/>
<path d="M93.6069 264.255L40.2332 264.524L40.2485 273.061L93.6222 272.792L93.6069 264.255Z" fill="url(#paint18_linear_105_5)"/>
</g>
<defs>
<linearGradient id="paint0_linear_105_5" x1="268.368" y1="486.816" x2="-97.6831" y2="63.4275" gradientUnits="userSpaceOnUse">
<stop offset="0.0386635" stop-color="#FF3864"/>
<stop offset="1" stop-color="#45125E"/>
</linearGradient>
<linearGradient id="paint1_linear_105_5" x1="168.718" y1="106.065" x2="198.003" y2="112.89" gradientUnits="userSpaceOnUse">
<stop stop-color="#FFD319"/>
<stop offset="1" stop-color="#F222FF"/>
</linearGradient>
<linearGradient id="paint2_linear_105_5" x1="128.99" y1="106.228" x2="147.15" y2="111.24" gradientUnits="userSpaceOnUse">
<stop stop-color="#FFD319"/>
<stop offset="1" stop-color="#F222FF"/>
</linearGradient>
<linearGradient id="paint3_linear_105_5" x1="166.023" y1="180.873" x2="166.058" y2="189.46" gradientUnits="userSpaceOnUse">
<stop stop-color="#FFD319"/>
<stop offset="1" stop-color="#F222FF"/>
</linearGradient>
<linearGradient id="paint4_linear_105_5" x1="58.8306" y1="154.879" x2="95.251" y2="162.186" gradientUnits="userSpaceOnUse">
<stop stop-color="#FFD319"/>
<stop offset="1" stop-color="#F222FF"/>
</linearGradient>
<linearGradient id="paint5_linear_105_5" x1="163.49" y1="148.215" x2="188.902" y2="174.763" gradientUnits="userSpaceOnUse">
<stop stop-color="#FFD319"/>
<stop offset="1" stop-color="#F222FF"/>
</linearGradient>
<linearGradient id="paint6_linear_105_5" x1="65.7569" y1="196.786" x2="91.1691" y2="223.334" gradientUnits="userSpaceOnUse">
<stop stop-color="#FFD319"/>
<stop offset="1" stop-color="#F222FF"/>
</linearGradient>
<linearGradient id="paint7_linear_105_5" x1="170.854" y1="226.494" x2="182.693" y2="249.592" gradientUnits="userSpaceOnUse">
<stop stop-color="#FFD319"/>
<stop offset="1" stop-color="#F222FF"/>
</linearGradient>
<linearGradient id="paint8_linear_105_5" x1="55.1489" y1="130.74" x2="64.0712" y2="156.786" gradientUnits="userSpaceOnUse">
<stop stop-color="#FFD319"/>
<stop offset="1" stop-color="#F222FF"/>
</linearGradient>
<linearGradient id="paint9_linear_105_5" x1="46.1502" y1="82.6499" x2="55.0724" y2="108.695" gradientUnits="userSpaceOnUse">
<stop stop-color="#FFD319"/>
<stop offset="1" stop-color="#F222FF"/>
</linearGradient>
<linearGradient id="paint10_linear_105_5" x1="163.225" y1="287.706" x2="192.51" y2="294.531" gradientUnits="userSpaceOnUse">
<stop stop-color="#FFD319"/>
<stop offset="1" stop-color="#F222FF"/>
</linearGradient>
<linearGradient id="paint11_linear_105_5" x1="123.497" y1="287.868" x2="141.657" y2="292.881" gradientUnits="userSpaceOnUse">
<stop stop-color="#FFD319"/>
<stop offset="1" stop-color="#F222FF"/>
</linearGradient>
<linearGradient id="paint12_linear_105_5" x1="160.53" y1="362.514" x2="160.565" y2="371.101" gradientUnits="userSpaceOnUse">
<stop stop-color="#FFD319"/>
<stop offset="1" stop-color="#F222FF"/>
</linearGradient>
<linearGradient id="paint13_linear_105_5" x1="53.3377" y1="336.52" x2="89.758" y2="343.827" gradientUnits="userSpaceOnUse">
<stop stop-color="#FFD319"/>
<stop offset="1" stop-color="#F222FF"/>
</linearGradient>
<linearGradient id="paint14_linear_105_5" x1="157.997" y1="329.856" x2="183.409" y2="356.404" gradientUnits="userSpaceOnUse">
<stop stop-color="#FFD319"/>
<stop offset="1" stop-color="#F222FF"/>
</linearGradient>
<linearGradient id="paint15_linear_105_5" x1="60.264" y1="378.427" x2="85.6761" y2="404.975" gradientUnits="userSpaceOnUse">
<stop stop-color="#FFD319"/>
<stop offset="1" stop-color="#F222FF"/>
</linearGradient>
<linearGradient id="paint16_linear_105_5" x1="165.361" y1="408.134" x2="177.2" y2="431.233" gradientUnits="userSpaceOnUse">
<stop stop-color="#FFD319"/>
<stop offset="1" stop-color="#F222FF"/>
</linearGradient>
<linearGradient id="paint17_linear_105_5" x1="49.656" y1="312.381" x2="58.5783" y2="338.427" gradientUnits="userSpaceOnUse">
<stop stop-color="#FFD319"/>
<stop offset="1" stop-color="#F222FF"/>
</linearGradient>
<linearGradient id="paint18_linear_105_5" x1="40.6572" y1="264.291" x2="49.5795" y2="290.336" gradientUnits="userSpaceOnUse">
<stop stop-color="#FFD319"/>
<stop offset="1" stop-color="#F222FF"/>
</linearGradient>
<clipPath id="clip0_105_5">
<rect width="500" height="277" fill="white" transform="translate(277) rotate(90)"/>
</clipPath>
</defs>
</svg>
