<svg width="194" height="261" viewBox="0 0 194 261" fill="none" xmlns="http://www.w3.org/2000/svg">
<mask id="mask0_46_19" style="mask-type:alpha" maskUnits="userSpaceOnUse" x="0" y="0" width="194" height="261">
<rect y="0.918701" width="194" height="260.081" fill="#C4C4C4"/>
</mask>
<g mask="url(#mask0_46_19)">
<path fill-rule="evenodd" clip-rule="evenodd" d="M29.2413 21.7465C55.0281 28.1159 81.517 32.1996 99.9609 51.2828C118.093 70.0436 127.09 95.827 126.014 121.873C124.98 146.896 109.361 166.798 94.3601 186.873C75.3531 212.308 60.1037 243.766 29.2413 251.374C-7.7758 260.499 -50.5228 255.268 -78.5902 229.508C-107.375 203.088 -110.223 160.871 -111.854 121.873C-113.584 80.5292 -121.775 28.8355 -87.9873 4.85876C-54.5362 -18.8794 -10.6001 11.9055 29.2413 21.7465Z" fill="#FFEEE1"/>
<path fill-rule="evenodd" clip-rule="evenodd" d="M26.2101 10.894C51.9969 17.2783 78.4858 21.3715 96.9296 40.4993C115.062 59.304 124.058 85.1476 122.982 111.255C121.949 136.336 106.33 156.285 91.3288 176.406C72.3219 201.901 57.0724 233.432 26.2101 241.058C-10.807 250.204 -53.554 244.962 -81.6215 219.14C-110.406 192.66 -113.254 150.344 -114.886 111.255C-116.615 69.8141 -124.806 17.9995 -91.0185 -6.03318C-57.5674 -29.8268 -13.6314 1.02999 26.2101 10.894Z" stroke="black"/>
</g>
</svg>
