<svg width="40" height="40" viewBox="0 0 40 40" fill="none" xmlns="http://www.w3.org/2000/svg">
<path d="M9.43832 14.4189H16.9827V15.0185H10.1299V19.5315H16.574V20.1312H10.1299V25.0861H17.0613V25.6857H9.43832V14.4189ZM17.6585 14.4189H18.4601L22.0123 19.3737L25.643 14.4189L30.5814 8.125L22.4681 19.8945L26.6489 25.6857H25.8159L22.0123 20.4152L18.1929 25.6857H17.3756L21.5879 19.8945L17.6585 14.4189ZM26.9475 15.0185V14.4189H35.545V15.0185H31.5842V25.6857H30.8926V15.0185H26.9475ZM0 14.4189H0.864459L12.7848 32.2566L7.85872 25.6857L0.723002 15.271L0.691567 25.6857H0V14.4189ZM35.4753 24.9051C35.334 24.9051 35.228 24.7956 35.228 24.6542C35.228 24.5127 35.334 24.4032 35.4753 24.4032C35.6183 24.4032 35.7226 24.5127 35.7226 24.6542C35.7226 24.7956 35.6183 24.9051 35.4753 24.9051ZM36.1548 24.2449H36.5249C36.5299 24.4453 36.6763 24.5801 36.8916 24.5801C37.1321 24.5801 37.2684 24.4352 37.2684 24.164V22.4461H37.6451V24.1657C37.6451 24.6542 37.3625 24.9354 36.8949 24.9354C36.4559 24.9354 36.1548 24.6626 36.1548 24.2449ZM38.138 24.223H38.5114C38.5433 24.4537 38.7687 24.6003 39.0934 24.6003C39.3961 24.6003 39.6182 24.4436 39.6182 24.228C39.6182 24.0428 39.4769 23.9316 39.1556 23.8558L38.8427 23.78C38.4037 23.6773 38.2036 23.4651 38.2036 23.108C38.2036 22.6752 38.5568 22.3872 39.0866 22.3872C39.5795 22.3872 39.9394 22.6752 39.9613 23.0844H39.5946C39.5593 22.8604 39.3642 22.7207 39.0816 22.7207C38.7839 22.7207 38.5854 22.8638 38.5854 23.0828C38.5854 23.2562 38.7132 23.3556 39.0295 23.4297L39.2969 23.4954C39.7948 23.6116 40 23.8137 40 24.1792C40 24.6441 39.64 24.9354 39.0648 24.9354C38.5265 24.9354 38.1649 24.6575 38.138 24.223Z" fill="white"/>
</svg>
