<svg width="24" height="24" viewBox="0 0 24 24" fill="none" xmlns="http://www.w3.org/2000/svg">
<g clip-path="url(#clip0_78_6)">
<path d="M12.139 24C12.138 24 12.137 24 12.136 24C11.797 24 11.48 23.909 11.208 23.749L11.217 23.754L8.28002 22.017C7.84202 21.771 8.05602 21.685 8.20002 21.634C8.70602 21.475 9.14602 21.269 9.55202 21.016L9.52802 21.03C9.55602 21.017 9.58802 21.01 9.62202 21.01C9.66802 21.01 9.71102 21.024 9.74702 21.048L9.74602 21.047L12.002 22.386C12.041 22.407 12.088 22.42 12.138 22.42C12.188 22.42 12.235 22.407 12.276 22.385L12.274 22.386L21.068 17.309C21.149 17.259 21.202 17.171 21.202 17.071C21.202 17.07 21.202 17.07 21.202 17.069V6.922C21.201 6.821 21.147 6.732 21.066 6.683L21.065 6.682L12.274 1.61C12.235 1.588 12.188 1.575 12.139 1.575C12.09 1.575 12.043 1.588 12.002 1.611L12.003 1.61L3.21402 6.683C3.13102 6.732 3.07602 6.821 3.07502 6.923V17.072C3.07502 17.173 3.13002 17.26 3.21202 17.306L3.21302 17.307L5.62302 18.699C6.93002 19.353 7.73002 18.583 7.73002 17.81V7.788C7.73002 7.648 7.84402 7.534 7.98402 7.534H7.98702H9.10202H9.10302C9.24302 7.534 9.35702 7.647 9.35702 7.788V17.81C9.35702 19.555 8.40702 20.556 6.75302 20.556C6.73302 20.556 6.71002 20.557 6.68702 20.557C5.96202 20.557 5.28502 20.352 4.71102 19.997L2.42102 18.679C1.86502 18.351 1.49902 17.756 1.49902 17.074V6.923C1.50002 6.243 1.86702 5.65 2.41302 5.328L2.42202 5.323L11.217 0.241005C11.484 0.0920049 11.802 0.00500488 12.141 0.00500488C12.48 0.00500488 12.799 0.0930049 13.075 0.246005L13.065 0.241005L21.859 5.323C22.414 5.65 22.78 6.243 22.782 6.923V17.073C22.781 17.754 22.414 18.349 21.867 18.673L21.858 18.678L13.066 23.756C12.802 23.911 12.484 24.002 12.144 24.002C12.142 24.002 12.139 24.002 12.137 24.002L12.139 24Z" fill="white"/>
<path d="M14.856 17.009C11.008 17.009 10.201 15.243 10.201 13.76V13.759C10.201 13.619 10.314 13.506 10.454 13.506H10.456H11.593H11.594C11.721 13.506 11.826 13.599 11.846 13.72V13.721C12.017 14.879 12.529 15.463 14.856 15.463C16.709 15.463 17.496 15.044 17.496 14.061C17.496 13.494 17.273 13.074 14.394 12.792C11.988 12.552 10.5 12.022 10.5 10.097C10.5 8.32304 11.996 7.26404 14.5 7.26404C17.318 7.26404 18.712 8.24204 18.888 10.34C18.889 10.347 18.889 10.355 18.889 10.362C18.889 10.503 18.775 10.616 18.635 10.616H17.502C17.382 10.616 17.281 10.531 17.256 10.418V10.416C16.982 9.19804 16.316 8.80904 14.51 8.80904C12.487 8.80904 12.252 9.51404 12.252 10.041C12.252 10.681 12.53 10.867 15.261 11.228C17.963 11.586 19.247 12.091 19.247 13.99C19.243 15.909 17.646 17.007 14.859 17.007L14.856 17.009Z" fill="white"/>
</g>
<defs>
<clipPath id="clip0_78_6">
<rect width="24" height="24" fill="white"/>
</clipPath>
</defs>
</svg>
