<svg width="24" height="24" viewBox="0 0 24 24" fill="none" xmlns="http://www.w3.org/2000/svg">
<path fill-rule="evenodd" clip-rule="evenodd" d="M8.50459 2.93853C7.86546 2.7531 7.39136 2.80283 7.0465 2.98963C6.70162 3.17645 6.40098 3.54637 6.20714 4.18301C6.01189 4.82427 5.94525 5.68038 6.04013 6.71408C6.0555 6.88158 6.07502 7.0527 6.09869 7.22715C6.93579 7.01442 7.83538 6.8464 8.78061 6.7291C9.43587 5.81102 10.1232 4.98312 10.8205 4.2652C10.7856 4.23688 10.7507 4.20893 10.7158 4.18136C9.90184 3.53717 9.14837 3.12531 8.50459 2.93853ZM11.9999 3.164C11.9028 3.08258 11.8057 3.00346 11.7087 2.92672C10.7936 2.20248 9.8564 1.66475 8.95042 1.4019C8.03979 1.1377 7.10504 1.13826 6.28442 1.58277C5.46381 2.02728 4.95269 2.80992 4.67651 3.71699C4.40174 4.61942 4.34014 5.69818 4.44683 6.86034C4.47184 7.13274 4.50629 7.41192 4.55006 7.69704C4.27854 7.79434 4.01667 7.89701 3.76526 8.00475C2.69258 8.46448 1.77339 9.03243 1.11075 9.70386C0.444722 10.3787 0 11.2009 0 12.1342C0 13.0675 0.44472 13.8896 1.11075 14.5645C1.77339 15.2359 2.69258 15.8039 3.76526 16.2637C4.01667 16.3714 4.27853 16.4741 4.55005 16.5714C4.50627 16.8565 4.47181 17.1357 4.4468 17.4082C4.34011 18.5702 4.40171 19.649 4.67648 20.5515C4.95266 21.4586 5.46378 22.2411 6.28438 22.6856C7.10501 23.1302 8.03976 23.1307 8.95038 22.8666C9.85637 22.6037 10.7936 22.0659 11.7087 21.3418C11.8057 21.265 11.9028 21.1859 11.9999 21.1045C12.097 21.1859 12.1941 21.265 12.2911 21.3418C13.2062 22.0659 14.1434 22.6037 15.0494 22.8666C15.96 23.1307 16.8947 23.1302 17.7154 22.6856C18.536 22.2411 19.0472 21.4586 19.3234 20.5515C19.5981 19.649 19.6597 18.5702 19.553 17.4082C19.528 17.1357 19.4936 16.8565 19.4498 16.5714C19.7213 16.4741 19.9832 16.3714 20.2347 16.2637C21.3074 15.8039 22.2266 15.2359 22.8893 14.5645C23.5552 13.8896 24 13.0675 24 12.1342C24 11.2009 23.5552 10.3787 22.8893 9.70386C22.2266 9.03243 21.3074 8.46448 20.2347 8.00475C19.9832 7.89699 19.7213 7.7943 19.4498 7.69698C19.4934 7.41187 19.528 7.13272 19.553 6.86034C19.6597 5.69818 19.5981 4.61942 19.3234 3.71699C19.0472 2.80992 18.536 2.02728 17.7154 1.58277C16.8947 1.13826 15.96 1.1377 15.0494 1.4019C14.1434 1.66475 13.2062 2.20248 12.2911 2.92672C12.1941 3.00346 12.097 3.08258 11.9999 3.164ZM11.9999 5.34746C11.6402 5.71573 11.2803 6.11938 10.9243 6.55539C11.279 6.54134 11.6378 6.53419 12 6.53419C12.3622 6.53419 12.7209 6.54134 13.0755 6.55539C12.7196 6.11938 12.3596 5.71573 11.9999 5.34746ZM15.2192 6.72907C14.5639 5.81101 13.8766 4.9831 13.1793 4.2652C13.2143 4.23688 13.2491 4.20893 13.284 4.18136C14.098 3.53717 14.8514 3.12531 15.4952 2.93853C16.1344 2.7531 16.6085 2.80283 16.9533 2.98963C17.2982 3.17645 17.5989 3.54637 17.7926 4.18301C17.9878 4.82427 18.0546 5.68038 17.9597 6.71408C17.9443 6.88157 17.9248 7.05267 17.9011 7.2271C17.064 7.01438 16.1645 6.84637 15.2192 6.72907ZM14.319 8.24054C13.5744 8.17109 12.7986 8.13419 12 8.13419C11.2014 8.13419 10.4255 8.17109 9.68083 8.24056C9.2651 8.86219 8.8631 9.52685 8.48274 10.2291C8.13635 10.8685 7.82586 11.506 7.55146 12.1342C7.82587 12.7624 8.13638 13.3999 8.48277 14.0394C8.86312 14.7416 9.26512 15.4062 9.68082 16.0278C10.4254 16.0973 11.2014 16.1342 12 16.1342C12.7986 16.1342 13.5744 16.0973 14.319 16.0278C14.7347 15.4062 15.1367 14.7416 15.517 14.0394C15.8634 13.3999 16.1739 12.7624 16.4483 12.1342C16.1739 11.506 15.8634 10.8685 15.5171 10.2291C15.1367 9.52683 14.7347 8.86218 14.319 8.24054ZM17.2365 10.0614C17.1354 9.86323 17.0312 9.66502 16.924 9.46699C16.7514 9.1485 16.5742 8.83642 16.393 8.5313C16.8099 8.61067 17.2117 8.70085 17.5965 8.8008C17.4954 9.21021 17.3754 9.63131 17.2365 10.0614ZM17.2365 14.207C17.1354 14.4052 17.0312 14.6034 16.9238 14.8015C16.7514 15.1199 16.5742 15.432 16.393 15.7371C16.8099 15.6577 17.2117 15.5675 17.5965 15.4676C17.4954 15.0582 17.3754 14.6371 17.2365 14.207ZM19.1253 14.9859C18.8933 14.068 18.5782 13.1097 18.1838 12.1342C18.5782 11.1587 18.8933 10.2004 19.1253 9.28246C19.2901 9.34477 19.4498 9.40912 19.6045 9.47539C20.5586 9.88429 21.2795 10.3507 21.7504 10.8278C22.2179 11.3014 22.4 11.742 22.4 12.1342C22.4 12.5264 22.2179 12.9669 21.7504 13.4406C21.2795 13.9177 20.5586 14.3841 19.6045 14.793C19.4498 14.8592 19.2901 14.9236 19.1253 14.9859ZM17.9011 17.0413C17.064 17.2539 16.1645 17.4221 15.2192 17.5394C14.564 18.4574 13.8766 19.2853 13.1793 20.0032C13.2143 20.0315 13.2492 20.0595 13.284 20.087C14.098 20.7312 14.8515 21.1432 15.4952 21.3299C16.1344 21.5154 16.6085 21.4656 16.9533 21.2789C17.2982 21.092 17.5989 20.7221 17.7926 20.0854C17.988 19.4442 18.0546 18.588 17.9597 17.5544C17.9443 17.3869 17.9248 17.2157 17.9011 17.0413ZM11.9999 18.921C12.3596 18.5526 12.7196 18.149 13.0755 17.713C12.7209 17.727 12.3622 17.7342 12 17.7342C11.6378 17.7342 11.279 17.727 10.9243 17.713C11.2802 18.149 11.6402 18.5526 11.9999 18.921ZM7.60682 15.737C7.42557 15.432 7.2484 15.1199 7.0759 14.8015C6.96862 14.6034 6.8644 14.4052 6.76326 14.207C6.6245 14.637 6.5045 15.0581 6.40333 15.4675C6.78805 15.5675 7.18989 15.6576 7.60682 15.737ZM6.09867 17.0413C6.93576 17.2539 7.83536 17.4219 8.78058 17.5392C9.43584 18.4573 10.1232 19.2853 10.8205 20.0032C10.7856 20.0315 10.7506 20.0595 10.7158 20.087C9.90181 20.7312 9.14834 21.1432 8.50456 21.3299C7.86542 21.5154 7.39133 21.4656 7.04646 21.2789C6.70158 21.092 6.40094 20.7221 6.2071 20.0854C6.01186 19.4442 5.94522 18.588 6.0401 17.5544C6.05549 17.3869 6.07501 17.2157 6.09867 17.0413ZM4.8745 14.9858C5.1065 14.068 5.4215 13.1096 5.8159 12.1342C5.4215 11.1587 5.10651 10.2004 4.8745 9.28253C4.70986 9.34482 4.55013 9.40914 4.39554 9.47539C3.44142 9.88429 2.72042 10.3507 2.24955 10.8278C1.78208 11.3014 1.6 11.742 1.6 12.1342C1.6 12.5264 1.78208 12.9669 2.24955 13.4406C2.72042 13.9177 3.44142 14.3841 4.39554 14.793C4.55013 14.8592 4.70986 14.9236 4.8745 14.9858ZM6.40333 8.80085C6.5045 9.21024 6.6245 9.63133 6.76326 10.0614C6.86438 9.86323 6.96861 9.66504 7.07587 9.46699C7.24838 9.14851 7.42557 8.83645 7.60683 8.53133C7.1899 8.61072 6.78806 8.7009 6.40333 8.80085ZM9.6 12.1342C9.6 10.8087 10.6745 9.73419 12 9.73419C13.3255 9.73419 14.4 10.8087 14.4 12.1342C14.4 13.4597 13.3255 14.5342 12 14.5342C10.6745 14.5342 9.6 13.4597 9.6 12.1342ZM12 11.3342C11.5582 11.3342 11.2 11.6924 11.2 12.1342C11.2 12.576 11.5582 12.9342 12 12.9342C12.4418 12.9342 12.8 12.576 12.8 12.1342C12.8 11.6924 12.4418 11.3342 12 11.3342Z" fill="white"/>
</svg>
