<svg width="24" height="24" viewBox="0 0 24 24" fill="none" xmlns="http://www.w3.org/2000/svg">
<path d="M11.9496 14.0273C11.5889 14.1931 11.1936 14.4091 10.4024 14.8433C10.1024 15.0121 9.78889 15.1808 9.49714 15.3398C9.47689 15.3196 9.45589 15.2941 9.43564 15.2731C7.87039 13.6006 4.97539 12.4193 5.09839 10.1731C5.14414 9.35482 5.42539 7.20682 10.6581 4.59832C14.9646 2.47582 18.3914 3.06382 18.9831 4.36807C19.8336 6.22732 17.1464 9.68707 12.6989 10.1888C12.2067 10.2887 11.6983 10.2766 11.2113 10.1535C10.7244 10.0305 10.2713 9.79955 9.88564 9.47782C9.65014 9.22207 9.61489 9.20707 9.52789 9.25807C9.38464 9.33307 9.47689 9.56482 9.52789 9.69757C9.69754 10.0047 9.92705 10.2748 10.2029 10.4917C10.4787 10.7086 10.7952 10.8681 11.1336 10.9606C12.8838 11.3389 14.7087 11.1581 16.3506 10.4438C19.0461 9.40057 21.1506 6.50032 20.5341 4.06882C19.9154 1.60357 15.8234 0.790574 11.9519 2.16607C9.52734 2.98312 7.28728 4.26931 5.35939 5.95132C3.22639 7.94632 2.88889 9.68032 3.02689 10.4063C3.52339 12.9841 7.07689 14.6618 8.50189 15.9046C8.42689 15.9458 8.36388 15.9796 8.30763 16.0118C7.59663 16.3651 4.88614 17.7818 4.21039 19.2803C3.44314 20.9783 4.33339 22.1956 4.92139 22.3591C5.8075 22.5713 6.73778 22.5016 7.58232 22.1595C8.42686 21.8174 9.14349 21.2202 9.63214 20.4511C10.0471 19.8133 10.3019 19.0848 10.3749 18.3275C10.4479 17.5701 10.3369 16.8063 10.0514 16.1011C10.2198 15.9667 10.3995 15.847 10.5884 15.7433C10.9514 15.5288 11.2971 15.3173 11.6039 15.1538C12.6542 14.6619 13.8003 14.4086 14.9601 14.4121C17.3946 14.6986 17.8754 16.2173 17.7831 16.8571C17.74 17.0841 17.6487 17.2992 17.5155 17.4879C17.3822 17.6767 17.2101 17.8347 17.0106 17.9513C16.8419 18.0586 16.7856 18.0946 16.8006 18.1711C16.8209 18.2836 16.9026 18.2783 17.0459 18.2581C17.4117 18.1425 17.7339 17.9189 17.9703 17.6168C18.2067 17.3147 18.3462 16.9482 18.3704 16.5653C18.4454 15.0653 17.0151 13.4198 14.4831 13.4348C13.725 13.4361 12.9744 13.5857 12.2736 13.8751C12.1611 13.9216 12.0519 13.9716 11.9459 14.0251L11.9496 14.0273ZM8.33089 19.9066C7.52239 20.7863 6.39739 21.1186 5.91139 20.8373C5.38639 20.5373 5.59414 19.2361 6.58639 18.3053C7.17406 17.7758 7.80924 17.3016 8.48389 16.8886C8.60164 16.8136 8.77564 16.7146 8.98489 16.5886C9.02089 16.5683 9.04114 16.5578 9.04114 16.5578L9.16414 16.4828C9.3411 17.0762 9.35721 17.7059 9.21079 18.3074C9.06438 18.909 8.76071 19.4609 8.33089 19.9066V19.9066Z" fill="white"/>
</svg>
