<svg width="20" height="18" viewBox="0 0 20 18" fill="none" xmlns="http://www.w3.org/2000/svg">
<path d="M1.97767 0.17815L18.5337 8.09625C19.023 8.33028 19.23 8.91669 18.996 9.40602C18.8992 9.60838 18.7361 9.77152 18.5337 9.8683L1.97767 17.7864C1.48834 18.0204 0.901929 17.8135 0.667898 17.3241C0.5662 17.1115 0.544367 16.8694 0.606387 16.642L2.26232 10.57C2.3038 10.4179 2.43222 10.3053 2.58846 10.2841L10.6111 9.19434C10.6802 9.18447 10.7375 9.13903 10.764 9.077L10.7777 9.02767C10.7909 8.93562 10.7379 8.84937 10.6549 8.81694L10.6111 8.80544L2.59784 7.71572C2.44163 7.69447 2.31324 7.5819 2.27176 7.4298L0.606387 1.32259C0.463666 0.799284 0.772194 0.25936 1.2955 0.116639C1.52291 0.0546198 1.76503 0.0764522 1.97767 0.17815Z" fill="#F222FF"/>
</svg>
