<svg width="200" height="165" viewBox="0 0 200 165" fill="none" xmlns="http://www.w3.org/2000/svg">
<path d="M113.281 23.8547C113.281 22.7501 112.386 21.8547 111.281 21.8547H65.2812C64.1767 21.8547 63.2812 22.7501 63.2812 23.8547V32.3547C63.2812 33.4593 64.1767 34.3547 65.2812 34.3547H111.281C112.386 34.3547 113.281 33.4593 113.281 32.3547V23.8547Z" fill="url(#paint0_linear_106_282)"/>
<path d="M130.469 42.2143C130.469 41.1097 129.573 40.2143 128.469 40.2143H82.4686C81.364 40.2143 80.4686 41.1097 80.4686 42.2143V50.7143C80.4686 51.8189 81.364 52.7143 82.4686 52.7143H128.469C129.573 52.7143 130.469 51.8189 130.469 50.7143V42.2143Z" fill="url(#paint1_linear_106_282)"/>
<path d="M113.281 60.5735C113.281 59.4689 112.386 58.5735 111.281 58.5735H65.2812C64.1767 58.5735 63.2812 59.4689 63.2812 60.5735V69.0735C63.2812 70.178 64.1767 71.0735 65.2812 71.0735H111.281C112.386 71.0735 113.281 70.178 113.281 69.0735V60.5735Z" fill="url(#paint2_linear_106_282)"/>
<path d="M130.469 78.9331C130.469 77.8285 129.573 76.9331 128.469 76.9331H82.4686C81.364 76.9331 80.4686 77.8285 80.4686 78.9331V87.4359C80.4686 88.5405 81.364 89.4359 82.4686 89.4359H128.469C129.573 89.4359 130.469 88.5405 130.469 87.4359V78.9331Z" fill="url(#paint3_linear_106_282)"/>
<path d="M113.281 97.2894C113.281 96.1848 112.386 95.2894 111.281 95.2894H65.2812C64.1767 95.2894 63.2812 96.1848 63.2812 97.2894V105.789C63.2812 106.894 64.1767 107.789 65.2812 107.789H111.281C112.386 107.789 113.281 106.894 113.281 105.789V97.2894Z" fill="url(#paint4_linear_106_282)"/>
<path d="M9.3751 130.208H82.3751C83.4797 130.208 84.3751 131.104 84.3751 132.208V149.821C84.3751 150.925 83.4797 151.821 82.3751 151.821H57.8596C56.755 151.821 55.8596 152.716 55.8596 153.821V162.321C55.8596 163.425 56.755 164.321 57.8596 164.321H142.141C143.245 164.321 144.141 163.425 144.141 162.321V153.821C144.141 152.716 143.245 151.821 142.141 151.821H117.625C116.521 151.821 115.625 150.925 115.625 149.821V132.208C115.625 131.104 116.521 130.208 117.625 130.208H190.625C195.782 130.208 200 125.989 200 120.833V9.3751C200 4.21878 195.782 0 190.625 0H9.3751C4.21878 0 0 4.21878 0 9.3751V120.833C0 125.989 4.21878 130.208 9.3751 130.208ZM12.5 14.5C12.5 13.3954 13.3954 12.5 14.5 12.5H185.5C186.605 12.5 187.5 13.3954 187.5 14.5V115.708C187.5 116.813 186.605 117.708 185.5 117.708H14.5C13.3954 117.708 12.5 116.813 12.5 115.708V14.5Z" fill="url(#paint5_linear_106_282)"/>
<defs>
<linearGradient id="paint0_linear_106_282" x1="0" y1="0" x2="243.5" y2="198.5" gradientUnits="userSpaceOnUse">
<stop stop-color="#C21FCC"/>
<stop offset="0.511097" stop-color="#52176F"/>
<stop offset="1"/>
</linearGradient>
<linearGradient id="paint1_linear_106_282" x1="0" y1="0" x2="243.5" y2="198.5" gradientUnits="userSpaceOnUse">
<stop stop-color="#C21FCC"/>
<stop offset="0.511097" stop-color="#52176F"/>
<stop offset="1"/>
</linearGradient>
<linearGradient id="paint2_linear_106_282" x1="0" y1="0" x2="243.5" y2="198.5" gradientUnits="userSpaceOnUse">
<stop stop-color="#C21FCC"/>
<stop offset="0.511097" stop-color="#52176F"/>
<stop offset="1"/>
</linearGradient>
<linearGradient id="paint3_linear_106_282" x1="0" y1="0" x2="243.5" y2="198.5" gradientUnits="userSpaceOnUse">
<stop stop-color="#C21FCC"/>
<stop offset="0.511097" stop-color="#52176F"/>
<stop offset="1"/>
</linearGradient>
<linearGradient id="paint4_linear_106_282" x1="0" y1="0" x2="243.5" y2="198.5" gradientUnits="userSpaceOnUse">
<stop stop-color="#C21FCC"/>
<stop offset="0.511097" stop-color="#52176F"/>
<stop offset="1"/>
</linearGradient>
<linearGradient id="paint5_linear_106_282" x1="0" y1="0" x2="243.5" y2="198.5" gradientUnits="userSpaceOnUse">
<stop stop-color="#C21FCC"/>
<stop offset="0.511097" stop-color="#52176F"/>
<stop offset="1"/>
</linearGradient>
</defs>
</svg>
