<svg width="300" height="300" viewBox="0 0 300 300" fill="none" xmlns="http://www.w3.org/2000/svg">
<circle cx="150" cy="150" r="150" fill="#300E52"/>
<path d="M161.953 97.6692C161.953 96.5646 161.057 95.6692 159.953 95.6692H118.953C117.848 95.6692 116.953 96.5646 116.953 97.6692V104.919C116.953 106.024 117.848 106.919 118.953 106.919H159.953C161.057 106.919 161.953 106.024 161.953 104.919V97.6692Z" fill="url(#paint0_linear_106_560)"/>
<path d="M177.421 114.193C177.421 113.088 176.526 112.193 175.421 112.193H134.422C133.317 112.193 132.422 113.088 132.422 114.193V121.443C132.422 122.547 133.317 123.443 134.422 123.443H175.421C176.526 123.443 177.421 122.547 177.421 121.443V114.193Z" fill="url(#paint1_linear_106_560)"/>
<path d="M161.953 130.716C161.953 129.611 161.057 128.716 159.953 128.716H118.953C117.848 128.716 116.953 129.611 116.953 130.716V137.966C116.953 139.071 117.848 139.966 118.953 139.966H159.953C161.057 139.966 161.953 139.071 161.953 137.966V130.716Z" fill="url(#paint2_linear_106_560)"/>
<path d="M177.421 147.24C177.421 146.135 176.526 145.24 175.421 145.24H134.422C133.317 145.24 132.422 146.135 132.422 147.24V154.492C132.422 155.597 133.317 156.492 134.422 156.492H175.421C176.526 156.492 177.421 155.597 177.421 154.492V147.24Z" fill="url(#paint3_linear_106_560)"/>
<path d="M161.953 163.76C161.953 162.656 161.057 161.76 159.953 161.76H118.953C117.848 161.76 116.953 162.656 116.953 163.76V171.01C116.953 172.115 117.848 173.01 118.953 173.01H159.953C161.057 173.01 161.953 172.115 161.953 171.01V163.76Z" fill="url(#paint4_linear_106_560)"/>
<path d="M68.4376 193.187H133.937C135.042 193.187 135.937 194.083 135.937 195.187V210.638C135.937 211.743 135.042 212.638 133.937 212.638H112.274C111.169 212.638 110.274 213.534 110.274 214.638V221.888C110.274 222.993 111.169 223.888 112.274 223.888H187.726C188.831 223.888 189.726 222.993 189.726 221.888V214.638C189.726 213.534 188.831 212.638 187.726 212.638H166.063C164.958 212.638 164.063 211.743 164.063 210.638V195.187C164.063 194.083 164.958 193.187 166.063 193.187H231.562C236.203 193.187 240 189.39 240 184.75V84.4376C240 79.7969 236.203 76 231.562 76H68.4376C63.7969 76 60 79.7969 60 84.4376V184.75C60 189.39 63.7969 193.187 68.4376 193.187ZM71.25 89.25C71.25 88.1454 72.1454 87.25 73.25 87.25H226.75C227.854 87.25 228.75 88.1454 228.75 89.25V179.937C228.75 181.042 227.854 181.937 226.75 181.937H73.25C72.1454 181.937 71.25 181.042 71.25 179.937V89.25Z" fill="url(#paint5_linear_106_560)"/>
<defs>
<linearGradient id="paint0_linear_106_560" x1="60" y1="76" x2="232.421" y2="244.158" gradientUnits="userSpaceOnUse">
<stop stop-color="#FFD319"/>
<stop offset="0.526042" stop-color="#F222FF"/>
<stop offset="1" stop-color="#45125E"/>
</linearGradient>
<linearGradient id="paint1_linear_106_560" x1="60" y1="76" x2="232.421" y2="244.158" gradientUnits="userSpaceOnUse">
<stop stop-color="#FFD319"/>
<stop offset="0.526042" stop-color="#F222FF"/>
<stop offset="1" stop-color="#45125E"/>
</linearGradient>
<linearGradient id="paint2_linear_106_560" x1="60" y1="76" x2="232.421" y2="244.158" gradientUnits="userSpaceOnUse">
<stop stop-color="#FFD319"/>
<stop offset="0.526042" stop-color="#F222FF"/>
<stop offset="1" stop-color="#45125E"/>
</linearGradient>
<linearGradient id="paint3_linear_106_560" x1="60" y1="76" x2="232.421" y2="244.158" gradientUnits="userSpaceOnUse">
<stop stop-color="#FFD319"/>
<stop offset="0.526042" stop-color="#F222FF"/>
<stop offset="1" stop-color="#45125E"/>
</linearGradient>
<linearGradient id="paint4_linear_106_560" x1="60" y1="76" x2="232.421" y2="244.158" gradientUnits="userSpaceOnUse">
<stop stop-color="#FFD319"/>
<stop offset="0.526042" stop-color="#F222FF"/>
<stop offset="1" stop-color="#45125E"/>
</linearGradient>
<linearGradient id="paint5_linear_106_560" x1="60" y1="76" x2="232.421" y2="244.158" gradientUnits="userSpaceOnUse">
<stop stop-color="#FFD319"/>
<stop offset="0.526042" stop-color="#F222FF"/>
<stop offset="1" stop-color="#45125E"/>
</linearGradient>
</defs>
</svg>
